<?xml version="1.0" encoding="UTF-8" standalone="no"?><svg xmlns="http://www.w3.org/2000/svg" xmlns:xlink="http://www.w3.org/1999/xlink" fill="none" height="30" preserveAspectRatio="xMidYMid meet" style="fill: none" version="1" viewBox="1.0 1.0 30.0 30.0" width="30" zoomAndPan="magnify"><g id="change1_1"><path clip-rule="evenodd" d="M16 31C24.2843 31 31 24.2843 31 16C31 7.71573 24.2843 1 16 1C7.71573 1 1 7.71573 1 16C1 24.2843 7.71573 31 16 31ZM23.9807 10.1233L21.2491 22.2207C21.2342 22.2867 21.211 22.3496 21.1806 22.4082C21.1617 22.4445 21.1401 22.4792 21.116 22.512C21.0234 22.6375 20.8939 22.7345 20.7417 22.7868C20.486 22.8749 20.2029 22.8242 19.9935 22.6529L16.4237 19.7322L14.9261 22.4279C14.7728 22.7038 14.4684 22.8603 14.1548 22.8242C13.8412 22.7882 13.5801 22.5668 13.4934 22.2633L12.0632 17.2575L8.62744 16.5703C8.28941 16.5027 8.03577 16.2214 8.00346 15.8782C8.00144 15.8567 8.00031 15.8353 8.00006 15.8141C7.99976 15.7895 8.00062 15.7651 8.00261 15.7409C8.02635 15.4512 8.21083 15.1937 8.48727 15.0816L22.9212 9.23004C22.9315 9.22576 22.942 9.22171 22.9525 9.21788C23.07 9.17503 23.1922 9.16219 23.3098 9.17599C23.3955 9.18596 23.4807 9.21032 23.5617 9.24985C23.57 9.25389 23.5781 9.25806 23.5862 9.26235C23.6933 9.31929 23.7878 9.40146 23.8599 9.50521C23.8973 9.55887 23.9277 9.61698 23.9506 9.67809C23.978 9.75128 23.9938 9.82674 23.9985 9.9021C24.0031 9.97488 23.9975 10.0492 23.9808 10.1232L23.9807 10.1233ZM19.5832 13.1631L15.5911 18.0424C15.5577 18.0831 15.5292 18.1262 15.5054 18.171L14.4767 20.0227L13.5942 16.9339L19.5832 13.1631Z" fill="#fcfcfc" fill-rule="evenodd"/></g></svg>